<?xml version="1.0" encoding="UTF-8"?>
<svg id="Layer_1" xmlns="http://www.w3.org/2000/svg" version="1.1" viewBox="0 0 200 24">
  <!-- Generator: Adobe Illustrator 29.6.1, SVG Export Plug-In . SVG Version: 2.1.1 Build 9)  -->
  <defs>
    <style>
      .st0 {
        fill: #231f20;
      }
    </style>
  </defs>
  <rect class="st0" width="8" height="8"/>
  <rect class="st0" y="16" width="8" height="8"/>
  <polygon class="st0" points="52 8 40 8 40 0 48 0 52 8"/>
  <rect class="st0" x="40" y="16" width="8" height="8"/>
  <rect class="st0" x="56" width="8" height="8"/>
  <polygon class="st0" points="64 24 56 24 52 16 64 16 64 24"/>
  <polygon class="st0" points="30.7 8 17.3 8 20 0 28 0 30.7 8"/>
  <polygon class="st0" points="20 24 12 24 14.7 16 22.7 16 20 24"/>
  <polygon class="st0" points="36 24 28 24 25.3 16 33.3 16 36 24"/>
  <polygon class="st0" points="112 8 100 8 100 0 108 0 112 8"/>
  <rect class="st0" x="100" y="16" width="8" height="8"/>
  <rect class="st0" x="116" width="8" height="8"/>
  <rect class="st0" x="160" y="16" width="8" height="8"/>
  <polygon class="st0" points="124 24 116 24 112 16 124 16 124 24"/>
  <polygon class="st0" points="90.7 8 77.3 8 80 0 88 0 90.7 8"/>
  <polygon class="st0" points="80 24 72 24 74.7 16 82.7 16 80 24"/>
  <polygon class="st0" points="96 24 88 24 85.3 16 93.3 16 96 24"/>
  <polygon class="st0" points="146.7 8 133.3 8 136 0 144 0 146.7 8"/>
  <polygon class="st0" points="136 24 128 24 130.7 16 138.7 16 136 24"/>
  <polygon class="st0" points="152 24 144 24 141.3 16 149.3 16 152 24"/>
  <polygon class="st0" points="194.7 8 181.3 8 184 0 192 0 194.7 8"/>
  <polygon class="st0" points="184 24 176 24 178.7 16 186.7 16 184 24"/>
  <polygon class="st0" points="200 24 192 24 189.3 16 197.3 16 200 24"/>
  <polygon class="st0" points="168 0 176 0 172 8 164 8 168 0"/>
  <polygon class="st0" points="152 0 160 0 164 8 156 8 152 0"/>
</svg>